<svg xmlns="http://www.w3.org/2000/svg" viewBox="0 0 240 90" width="240" height="90">
  <defs>
    <linearGradient id="j88Bg" x1="0%" y1="0%" x2="100%" y2="100%">
      <stop offset="0%" stop-color="#fff8f6"/>
      <stop offset="100%" stop-color="#ffebee"/>
    </linearGradient>
  </defs>
  <rect width="240" height="90" rx="8" fill="url(#j88Bg)"/>
  <g transform="translate(18, 15)">
    <path d="M25 5 C15 5 10 15 10 25 C10 38 20 45 30 45 C38 45 42 38 42 30 L34 30 C34 34 32 37 28 37 C22 37 18 32 18 25 C18 18 22 13 28 13 C32 13 35 16 35 20 L43 20 C43 12 36 5 25 5 Z" fill="#d32f2f"/>
    <circle cx="28" cy="25" r="4" fill="#d32f2f"/>
  </g>
  <text x="76" y="60" font-family="'Arial Black', sans-serif" font-weight="900" font-size="46" fill="#d32f2f" letter-spacing="1">J88</text>
</svg>
